<?xml version="1.0" standalone="no"?><svg xmlns:xlink="http://www.w3.org/1999/xlink" xmlns="http://www.w3.org/2000/svg" viewBox="0 0 1000 545.4548113355161" preserveAspectRatio="xMaxYMax slice"><g transform="scale(1.4623453387011156)"><rect x="0" y="0" width="683.8333333333333" height="373" fill="#ffffff"/><rect x="0" y="0" width="62.17" height="62.17" fill="#f3ebfc"/><polygon points="62.17,0 62.17,62.17 0,62.17" fill="#cca9f3"/><rect x="62.17" y="0" width="62.17" height="62.17" fill="#e8d8fa"/><rect x="62.17" y="0" width="62.17" height="62.17" fill="#c59cf1"/><rect x="124.33" y="0" width="62.17" height="62.17" fill="#e3cff8"/><rect x="124.33" y="0" width="62.17" height="62.17" fill="#b47fed"/><rect x="186.5" y="0" width="62.17" height="62.17" fill="#c9d1f3"/><rect x="186.5" y="0" width="62.17" height="62.17" fill="#788de0"/><rect x="248.67" y="0" width="62.17" height="62.17" fill="#bd8fef"/><polygon points="248.67,0 310.84,0 310.84,62.17" fill="#6e85de"/><rect x="310.83" y="0" width="62.17" height="62.17" fill="#f0e6fb"/><polygon points="310.83,0 373,0 310.83,62.17" fill="#f0f2fc"/><rect x="373" y="0" width="62.17" height="62.17" fill="#d9bff6"/><polygon points="435.17,0 435.17,62.17 373,62.17" fill="#5f78db"/><rect x="435.17" y="0" width="62.17" height="62.17" fill="#fffeff"/><rect x="435.17" y="0" width="62.17" height="62.17" fill="#b988ee"/><rect x="497.33" y="0" width="62.17" height="62.17" fill="#9dace9"/><polygon points="497.33,0 559.5,0 497.33,62.17" fill="#e1ccf8"/><rect x="559.5" y="0" width="62.17" height="62.17" fill="#d7ddf6"/><rect x="559.5" y="0" width="62.17" height="62.17" fill="#e3e7f9"/><rect x="621.67" y="0" width="62.17" height="62.17" fill="#dec6f7"/><rect x="621.67" y="0" width="62.17" height="62.17" fill="#e9ecfa"/><rect x="0" y="62.17" width="62.17" height="62.17" fill="#fdfbfe"/><rect x="0" y="62.17" width="62.17" height="62.17" fill="#526cd8"/><rect x="62.17" y="62.17" width="62.17" height="62.17" fill="#3353d1"/><polygon points="124.34,62.17 124.34,124.34 62.17,124.34" fill="#bd8fef"/><rect x="124.33" y="62.17" width="62.17" height="62.17" fill="#f9f4fd"/><rect x="124.33" y="62.17" width="62.17" height="62.17" fill="#b3bfee"/><rect x="186.5" y="62.17" width="62.17" height="62.17" fill="#fdfbfe"/><rect x="186.5" y="62.17" width="62.17" height="62.17" fill="#758ae0"/><rect x="248.67" y="62.17" width="62.17" height="62.17" fill="#c093f0"/><rect x="248.67" y="62.17" width="62.17" height="62.17" fill="#ceacf3"/><rect x="310.83" y="62.17" width="62.17" height="62.17" fill="#d3daf5"/><polygon points="373,62.17 373,124.34 310.83,124.34" fill="#be90ef"/><rect x="373" y="62.17" width="62.17" height="62.17" fill="#dbc1f6"/><polygon points="373,62.17 435.17,62.17 435.17,124.34" fill="#fffeff"/><rect x="435.17" y="62.17" width="62.17" height="62.17" fill="#92a3e6"/><rect x="435.17" y="62.17" width="62.17" height="62.17" fill="#d9bff6"/><rect x="497.33" y="62.17" width="62.17" height="62.17" fill="#c9a3f2"/><rect x="497.33" y="62.17" width="62.17" height="62.17" fill="#d7bbf6"/><rect x="559.5" y="62.17" width="62.17" height="62.17" fill="#eee1fb"/><polygon points="559.5,62.17 621.67,62.17 621.67,124.34" fill="#bb8cef"/><rect x="621.67" y="62.17" width="62.17" height="62.17" fill="#eadbfa"/><polygon points="621.67,62.17 683.8399999999999,62.17 621.67,124.34" fill="#dbe0f7"/><rect x="0" y="124.33" width="62.17" height="62.17" fill="#5a74d9"/><rect x="0" y="124.33" width="62.17" height="62.17" fill="#b078ec"/><rect x="62.17" y="124.33" width="62.17" height="62.17" fill="#e7d6f9"/><rect x="62.17" y="124.33" width="62.17" height="62.17" fill="#ba8aef"/><rect x="124.33" y="124.33" width="62.17" height="62.17" fill="#b988ee"/><polygon points="186.5,124.33 186.5,186.5 124.33,186.5" fill="#b27ded"/><rect x="186.5" y="124.33" width="62.17" height="62.17" fill="#d3b4f5"/><polygon points="186.5,124.33 248.67000000000002,124.33 248.67000000000002,186.5" fill="#9dace9"/><rect x="248.67" y="124.33" width="62.17" height="62.17" fill="#eceffb"/><polygon points="248.67,124.33 310.84,186.5 248.67,186.5" fill="#96a6e7"/><rect x="310.83" y="124.33" width="62.17" height="62.17" fill="#4e69d7"/><polygon points="310.83,124.33 373,124.33 373,186.5" fill="#5872d9"/><rect x="373" y="124.33" width="62.17" height="62.17" fill="#c69ef1"/><rect x="373" y="124.33" width="62.17" height="62.17" fill="#aab7ec"/><rect x="435.17" y="124.33" width="62.17" height="62.17" fill="#c59df1"/><rect x="435.17" y="124.33" width="62.17" height="62.17" fill="#dfe4f8"/><rect x="497.33" y="124.33" width="62.17" height="62.17" fill="#97a7e7"/><polygon points="497.33,124.33 559.5,186.5 497.33,186.5" fill="#f9f4fd"/><rect x="559.5" y="124.33" width="62.17" height="62.17" fill="#657ddc"/><rect x="559.5" y="124.33" width="62.17" height="62.17" fill="#b886ee"/><rect x="621.67" y="124.33" width="62.17" height="62.17" fill="#b079ec"/><rect x="621.67" y="124.33" width="62.17" height="62.17" fill="#8fa0e6"/><rect x="0" y="186.5" width="62.17" height="62.17" fill="#cba6f3"/><rect x="0" y="186.5" width="62.17" height="62.17" fill="#a3b2ea"/><rect x="62.17" y="186.5" width="62.17" height="62.17" fill="#f0e5fb"/><polygon points="124.34,186.5 124.34,248.67000000000002 62.17,248.67000000000002" fill="#eff2fb"/><rect x="124.33" y="186.5" width="62.17" height="62.17" fill="#af76ec"/><polygon points="124.33,186.5 186.5,248.67000000000002 124.33,248.67000000000002" fill="#3f5cd3"/><rect x="186.5" y="186.5" width="62.17" height="62.17" fill="#b581ed"/><polygon points="248.67000000000002,186.5 248.67000000000002,248.67000000000002 186.5,248.67000000000002" fill="#5c76da"/><rect x="248.67" y="186.5" width="62.17" height="62.17" fill="#8b9de5"/><rect x="248.67" y="186.5" width="62.17" height="62.17" fill="#f5f7fd"/><rect x="310.83" y="186.5" width="62.17" height="62.17" fill="#b078ec"/><polygon points="373,186.5 373,248.67000000000002 310.83,248.67000000000002" fill="#2c4dcf"/><rect x="373" y="186.5" width="62.17" height="62.17" fill="#f2e9fc"/><polygon points="373,186.5 435.17,186.5 373,248.67000000000002" fill="#f4ecfc"/><rect x="435.17" y="186.5" width="62.17" height="62.17" fill="#fcfafe"/><polygon points="435.17,186.5 497.34000000000003,186.5 435.17,248.67000000000002" fill="#2647ce"/><rect x="497.33" y="186.5" width="62.17" height="62.17" fill="#3856d2"/><rect x="497.33" y="186.5" width="62.17" height="62.17" fill="#95a5e7"/><rect x="559.5" y="186.5" width="62.17" height="62.17" fill="#e3d0f8"/><rect x="559.5" y="186.5" width="62.17" height="62.17" fill="#cba6f3"/><rect x="621.67" y="186.5" width="62.17" height="62.17" fill="#f9f5fe"/><rect x="621.67" y="186.5" width="62.17" height="62.17" fill="#ddc4f7"/><rect x="0" y="248.67" width="62.17" height="62.17" fill="#eee2fb"/><rect x="0" y="248.67" width="62.17" height="62.17" fill="#b3beee"/><rect x="62.17" y="248.67" width="62.17" height="62.17" fill="#cad3f3"/><rect x="62.17" y="248.67" width="62.17" height="62.17" fill="#3756d2"/><rect x="124.33" y="248.67" width="62.17" height="62.17" fill="#a2b0ea"/><polygon points="124.33,248.67 186.5,248.67 124.33,310.84" fill="#9faee9"/><rect x="186.5" y="248.67" width="62.17" height="62.17" fill="#e0cbf8"/><polygon points="186.5,248.67 248.67000000000002,248.67 186.5,310.84" fill="#acb9ec"/><rect x="248.67" y="248.67" width="62.17" height="62.17" fill="#b37ded"/><rect x="248.67" y="248.67" width="62.17" height="62.17" fill="#95a5e7"/><rect x="310.83" y="248.67" width="62.17" height="62.17" fill="#b784ee"/><rect x="310.83" y="248.67" width="62.17" height="62.17" fill="#7c90e1"/><rect x="373" y="248.67" width="62.17" height="62.17" fill="#af77ec"/><polygon points="435.17,248.67 435.17,310.84 373,310.84" fill="#3f5dd3"/><rect x="435.17" y="248.67" width="62.17" height="62.17" fill="#eee2fb"/><polygon points="497.34000000000003,248.67 497.34000000000003,310.84 435.17,310.84" fill="#c69df1"/><rect x="497.33" y="248.67" width="62.17" height="62.17" fill="#e0cbf8"/><rect x="497.33" y="248.67" width="62.17" height="62.17" fill="#a4b2ea"/><rect x="559.5" y="248.67" width="62.17" height="62.17" fill="#9aaae8"/><polygon points="621.67,248.67 621.67,310.84 559.5,310.84" fill="#d6b9f5"/><rect x="621.67" y="248.67" width="62.17" height="62.17" fill="#bfc9f0"/><rect x="621.67" y="248.67" width="62.17" height="62.17" fill="#b582ed"/><rect x="0" y="310.83" width="62.17" height="62.17" fill="#b37eed"/><polygon points="0,310.83 62.17,310.83 0,373" fill="#9aa9e8"/><rect x="62.17" y="310.83" width="62.17" height="62.17" fill="#dac0f6"/><rect x="62.17" y="310.83" width="62.17" height="62.17" fill="#3655d1"/><rect x="124.33" y="310.83" width="62.17" height="62.17" fill="#8fa1e6"/><rect x="124.33" y="310.83" width="62.17" height="62.17" fill="#cba6f3"/><rect x="186.5" y="310.83" width="62.17" height="62.17" fill="#415fd4"/><polygon points="248.67000000000002,310.83 248.67000000000002,373 186.5,373" fill="#b9c4ef"/><rect x="248.67" y="310.83" width="62.17" height="62.17" fill="#dfc8f7"/><polygon points="248.67,310.83 310.84,373 248.67,373" fill="#6f85de"/><rect x="310.83" y="310.83" width="62.17" height="62.17" fill="#e6d4f9"/><rect x="310.83" y="310.83" width="62.17" height="62.17" fill="#dbe1f7"/><rect x="373" y="310.83" width="62.17" height="62.17" fill="#b47fed"/><rect x="373" y="310.83" width="62.17" height="62.17" fill="#f2e9fc"/><rect x="435.17" y="310.83" width="62.17" height="62.17" fill="#c195f0"/><polygon points="435.17,310.83 497.34000000000003,373 435.17,373" fill="#3252d0"/><rect x="497.33" y="310.83" width="62.17" height="62.17" fill="#e6d4f9"/><polygon points="497.33,310.83 559.5,310.83 559.5,373" fill="#3251d0"/><rect x="559.5" y="310.83" width="62.17" height="62.17" fill="#ede0fb"/><polygon points="559.5,310.83 621.67,310.83 559.5,373" fill="#cdd5f4"/><rect x="621.67" y="310.83" width="62.17" height="62.17" fill="#c49af1"/><rect x="621.67" y="310.83" width="62.17" height="62.17" fill="#faf6fe"/></g></svg>