<?xml version="1.0" standalone="no"?><svg xmlns:xlink="http://www.w3.org/1999/xlink" xmlns="http://www.w3.org/2000/svg" viewBox="0 0 1000 545.4548113355161" preserveAspectRatio="xMaxYMax slice"><g transform="scale(1.4623453387011156)"><rect x="0" y="0" width="683.8333333333333" height="373" fill="#ffffff"/><rect x="0" y="0" width="62.17" height="62.17" fill="#3952b4"/><polygon points="0,0 62.17,0 0,62.17" fill="#b0bae1"/><rect x="62.17" y="0" width="62.17" height="62.17" fill="#fbf8fe"/><rect x="62.17" y="0" width="62.17" height="62.17" fill="#223eab"/><rect x="124.33" y="0" width="62.17" height="62.17" fill="#dfc9f8"/><rect x="124.33" y="0" width="62.17" height="62.17" fill="#bbc4e5"/><rect x="186.5" y="0" width="62.17" height="62.17" fill="#596ec0"/><rect x="186.5" y="0" width="62.17" height="62.17" fill="#213dab"/><rect x="248.67" y="0" width="62.17" height="62.17" fill="#f6effd"/><rect x="248.67" y="0" width="62.17" height="62.17" fill="#e3d0f8"/><rect x="310.83" y="0" width="62.17" height="62.17" fill="#ecdffb"/><polygon points="373,0 373,62.17 310.83,62.17" fill="#d5b7f5"/><rect x="373" y="0" width="62.17" height="62.17" fill="#d8bcf6"/><rect x="373" y="0" width="62.17" height="62.17" fill="#f3eafc"/><rect x="435.17" y="0" width="62.17" height="62.17" fill="#fefdff"/><polygon points="435.17,0 497.34000000000003,0 435.17,62.17" fill="#fbf8fe"/><rect x="497.33" y="0" width="62.17" height="62.17" fill="#5d72c2"/><polygon points="497.33,0 559.5,0 497.33,62.17" fill="#eadbfa"/><rect x="559.5" y="0" width="62.17" height="62.17" fill="#687bc5"/><rect x="559.5" y="0" width="62.17" height="62.17" fill="#7385ca"/><rect x="621.67" y="0" width="62.17" height="62.17" fill="#ebddfa"/><rect x="621.67" y="0" width="62.17" height="62.17" fill="#b9c2e4"/><rect x="0" y="62.17" width="62.17" height="62.17" fill="#1734a7"/><rect x="0" y="62.17" width="62.17" height="62.17" fill="#e6d4f9"/><rect x="62.17" y="62.17" width="62.17" height="62.17" fill="#ede1fb"/><polygon points="124.34,62.17 124.34,124.34 62.17,124.34" fill="#e8d7fa"/><rect x="124.33" y="62.17" width="62.17" height="62.17" fill="#adb8e0"/><rect x="124.33" y="62.17" width="62.17" height="62.17" fill="#dfc8f7"/><rect x="186.5" y="62.17" width="62.17" height="62.17" fill="#d7dcf0"/><rect x="186.5" y="62.17" width="62.17" height="62.17" fill="#e3e7f4"/><rect x="248.67" y="62.17" width="62.17" height="62.17" fill="#d3b4f5"/><rect x="248.67" y="62.17" width="62.17" height="62.17" fill="#7082c9"/><rect x="310.83" y="62.17" width="62.17" height="62.17" fill="#b9c2e4"/><rect x="310.83" y="62.17" width="62.17" height="62.17" fill="#d9bdf6"/><rect x="373" y="62.17" width="62.17" height="62.17" fill="#bfc7e7"/><rect x="373" y="62.17" width="62.17" height="62.17" fill="#ddc5f7"/><rect x="435.17" y="62.17" width="62.17" height="62.17" fill="#fefeff"/><polygon points="435.17,62.17 497.34000000000003,124.34 435.17,124.34" fill="#dadff1"/><rect x="497.33" y="62.17" width="62.17" height="62.17" fill="#e6d4f9"/><polygon points="497.33,62.17 559.5,124.34 497.33,124.34" fill="#8f9dd5"/><rect x="559.5" y="62.17" width="62.17" height="62.17" fill="#f3eafc"/><rect x="559.5" y="62.17" width="62.17" height="62.17" fill="#e5d3f9"/><rect x="621.67" y="62.17" width="62.17" height="62.17" fill="#8191cf"/><rect x="621.67" y="62.17" width="62.17" height="62.17" fill="#ede0fb"/><rect x="0" y="124.33" width="62.17" height="62.17" fill="#e4d1f9"/><rect x="0" y="124.33" width="62.17" height="62.17" fill="#cfd5ed"/><rect x="62.17" y="124.33" width="62.17" height="62.17" fill="#ebddfa"/><polygon points="62.17,124.33 124.34,124.33 124.34,186.5" fill="#eef0f9"/><rect x="124.33" y="124.33" width="62.17" height="62.17" fill="#4058b6"/><polygon points="124.33,124.33 186.5,186.5 124.33,186.5" fill="#6074c2"/><rect x="186.5" y="124.33" width="62.17" height="62.17" fill="#f6f0fd"/><rect x="186.5" y="124.33" width="62.17" height="62.17" fill="#b4bee3"/><rect x="248.67" y="124.33" width="62.17" height="62.17" fill="#c9d0eb"/><polygon points="310.84,124.33 310.84,186.5 248.67,186.5" fill="#bcc4e6"/><rect x="310.83" y="124.33" width="62.17" height="62.17" fill="#7788cb"/><polygon points="310.83,124.33 373,124.33 373,186.5" fill="#b9c2e4"/><rect x="373" y="124.33" width="62.17" height="62.17" fill="#6175c3"/><rect x="373" y="124.33" width="62.17" height="62.17" fill="#aab4df"/><rect x="435.17" y="124.33" width="62.17" height="62.17" fill="#576dbf"/><rect x="435.17" y="124.33" width="62.17" height="62.17" fill="#f3ebfc"/><rect x="497.33" y="124.33" width="62.17" height="62.17" fill="#d2b3f4"/><rect x="497.33" y="124.33" width="62.17" height="62.17" fill="#d2b2f4"/><rect x="559.5" y="124.33" width="62.17" height="62.17" fill="#6074c3"/><polygon points="559.5,124.33 621.67,124.33 621.67,186.5" fill="#ecdffb"/><rect x="621.67" y="124.33" width="62.17" height="62.17" fill="#5d71c1"/><polygon points="683.8399999999999,124.33 683.8399999999999,186.5 621.67,186.5" fill="#7688cb"/><rect x="0" y="186.5" width="62.17" height="62.17" fill="#f6f0fd"/><polygon points="0,186.5 62.17,248.67000000000002 0,248.67000000000002" fill="#eee3fb"/><rect x="62.17" y="186.5" width="62.17" height="62.17" fill="#2843ad"/><rect x="62.17" y="186.5" width="62.17" height="62.17" fill="#fbf7fe"/><rect x="124.33" y="186.5" width="62.17" height="62.17" fill="#f2f4fa"/><rect x="124.33" y="186.5" width="62.17" height="62.17" fill="#e0caf8"/><rect x="186.5" y="186.5" width="62.17" height="62.17" fill="#f3ebfc"/><polygon points="186.5,186.5 248.67000000000002,186.5 248.67000000000002,248.67000000000002" fill="#f0e6fc"/><rect x="248.67" y="186.5" width="62.17" height="62.17" fill="#dadef1"/><rect x="248.67" y="186.5" width="62.17" height="62.17" fill="#1331a5"/><rect x="310.83" y="186.5" width="62.17" height="62.17" fill="#3750b3"/><rect x="310.83" y="186.5" width="62.17" height="62.17" fill="#fefdff"/><rect x="373" y="186.5" width="62.17" height="62.17" fill="#e7d6f9"/><polygon points="373,186.5 435.17,186.5 373,248.67000000000002" fill="#2440ac"/><rect x="435.17" y="186.5" width="62.17" height="62.17" fill="#fdfcff"/><rect x="435.17" y="186.5" width="62.17" height="62.17" fill="#4960ba"/><rect x="497.33" y="186.5" width="62.17" height="62.17" fill="#efe3fb"/><rect x="497.33" y="186.5" width="62.17" height="62.17" fill="#d8ddf0"/><rect x="559.5" y="186.5" width="62.17" height="62.17" fill="#e5d3f9"/><polygon points="559.5,186.5 621.67,248.67000000000002 559.5,248.67000000000002" fill="#fcfafe"/><rect x="621.67" y="186.5" width="62.17" height="62.17" fill="#d3b4f5"/><polygon points="621.67,186.5 683.8399999999999,186.5 683.8399999999999,248.67000000000002" fill="#eaedf7"/><rect x="0" y="248.67" width="62.17" height="62.17" fill="#f6effd"/><polygon points="62.17,248.67 62.17,310.84 0,310.84" fill="#324cb1"/><rect x="62.17" y="248.67" width="62.17" height="62.17" fill="#5b70c1"/><rect x="62.17" y="248.67" width="62.17" height="62.17" fill="#d9bff6"/><rect x="124.33" y="248.67" width="62.17" height="62.17" fill="#e9dafa"/><polygon points="124.33,248.67 186.5,248.67 124.33,310.84" fill="#faf7fe"/><rect x="186.5" y="248.67" width="62.17" height="62.17" fill="#1d3aa9"/><polygon points="186.5,248.67 248.67000000000002,248.67 186.5,310.84" fill="#fdfbfe"/><rect x="248.67" y="248.67" width="62.17" height="62.17" fill="#d6baf5"/><polygon points="248.67,248.67 310.84,248.67 310.84,310.84" fill="#798acc"/><rect x="310.83" y="248.67" width="62.17" height="62.17" fill="#fdfbfe"/><rect x="310.83" y="248.67" width="62.17" height="62.17" fill="#ffffff"/><rect x="373" y="248.67" width="62.17" height="62.17" fill="#1836a7"/><rect x="373" y="248.67" width="62.17" height="62.17" fill="#98a5d8"/><rect x="435.17" y="248.67" width="62.17" height="62.17" fill="#e7d6f9"/><rect x="435.17" y="248.67" width="62.17" height="62.17" fill="#2844ad"/><rect x="497.33" y="248.67" width="62.17" height="62.17" fill="#e3d0f9"/><rect x="497.33" y="248.67" width="62.17" height="62.17" fill="#ecdefb"/><rect x="559.5" y="248.67" width="62.17" height="62.17" fill="#5c71c1"/><rect x="559.5" y="248.67" width="62.17" height="62.17" fill="#f3eafc"/><rect x="621.67" y="248.67" width="62.17" height="62.17" fill="#edeff8"/><rect x="621.67" y="248.67" width="62.17" height="62.17" fill="#e4d1f9"/><rect x="0" y="310.83" width="62.17" height="62.17" fill="#d1b1f4"/><polygon points="0,310.83 62.17,310.83 62.17,373" fill="#92a0d6"/><rect x="62.17" y="310.83" width="62.17" height="62.17" fill="#8f9dd4"/><rect x="62.17" y="310.83" width="62.17" height="62.17" fill="#f2e9fc"/><rect x="124.33" y="310.83" width="62.17" height="62.17" fill="#9eabda"/><polygon points="124.33,310.83 186.5,373 124.33,373" fill="#f3ebfc"/><rect x="186.5" y="310.83" width="62.17" height="62.17" fill="#d6baf5"/><polygon points="248.67000000000002,310.83 248.67000000000002,373 186.5,373" fill="#6175c3"/><rect x="248.67" y="310.83" width="62.17" height="62.17" fill="#eee1fb"/><rect x="248.67" y="310.83" width="62.17" height="62.17" fill="#ccd2ec"/><rect x="310.83" y="310.83" width="62.17" height="62.17" fill="#bec6e6"/><rect x="310.83" y="310.83" width="62.17" height="62.17" fill="#e2cdf8"/><rect x="373" y="310.83" width="62.17" height="62.17" fill="#dfc8f7"/><rect x="373" y="310.83" width="62.17" height="62.17" fill="#d4b5f5"/><rect x="435.17" y="310.83" width="62.17" height="62.17" fill="#fcf9fe"/><polygon points="435.17,310.83 497.34000000000003,310.83 497.34000000000003,373" fill="#eee3fb"/><rect x="497.33" y="310.83" width="62.17" height="62.17" fill="#8998d2"/><polygon points="497.33,310.83 559.5,310.83 497.33,373" fill="#d0aff4"/><rect x="559.5" y="310.83" width="62.17" height="62.17" fill="#e0caf8"/><rect x="559.5" y="310.83" width="62.17" height="62.17" fill="#dac0f6"/><rect x="621.67" y="310.83" width="62.17" height="62.17" fill="#3d55b5"/><polygon points="621.67,310.83 683.8399999999999,310.83 621.67,373" fill="#e0caf8"/></g></svg>