<?xml version="1.0" standalone="no"?><svg xmlns:xlink="http://www.w3.org/1999/xlink" xmlns="http://www.w3.org/2000/svg" viewBox="0 0 1000 500" preserveAspectRatio="xMaxYMax slice"><g transform="scale(1.3404825737265416)"><rect x="0" y="0" width="746" height="373" fill="#fcfcfc"/><rect x="0" y="0" width="62.17" height="62.17" fill="#e8f1f9"/><polygon points="62.17,0 62.17,62.17 0,62.17" fill="#a34ada"/><rect x="62.17" y="0" width="62.17" height="62.17" fill="#9228d4"/><rect x="62.17" y="0" width="62.17" height="62.17" fill="#a349da"/><rect x="124.33" y="0" width="62.17" height="62.17" fill="#cb9be9"/><polygon points="186.5,0 186.5,62.17 124.33,62.17" fill="#c894e8"/><rect x="186.5" y="0" width="62.17" height="62.17" fill="#f5f8fb"/><rect x="186.5" y="0" width="62.17" height="62.17" fill="#dec0f1"/><rect x="248.67" y="0" width="62.17" height="62.17" fill="#e5eff9"/><rect x="248.67" y="0" width="62.17" height="62.17" fill="#d9e8f7"/><rect x="310.83" y="0" width="62.17" height="62.17" fill="#fcfcfc"/><rect x="310.83" y="0" width="62.17" height="62.17" fill="#e7f0f9"/><rect x="373" y="0" width="62.17" height="62.17" fill="#d6afed"/><polygon points="373,0 435.17,0 373,62.17" fill="#dab8ef"/><rect x="435.17" y="0" width="62.17" height="62.17" fill="#ddbff0"/><polygon points="497.34000000000003,0 497.34000000000003,62.17 435.17,62.17" fill="#f3ebf9"/><rect x="497.33" y="0" width="62.17" height="62.17" fill="#e5eff9"/><rect x="497.33" y="0" width="62.17" height="62.17" fill="#a44ddb"/><rect x="559.5" y="0" width="62.17" height="62.17" fill="#f2f6fb"/><polygon points="559.5,0 621.67,0 621.67,62.17" fill="#a044d9"/><rect x="621.67" y="0" width="62.17" height="62.17" fill="#fbfcfc"/><polygon points="621.67,0 683.8399999999999,0 621.67,62.17" fill="#ebf2fa"/><rect x="683.83" y="0" width="62.17" height="62.17" fill="#e5eff9"/><path d="M 683.83 0 A 62.17 62.17 0 0 1  746 62.17 L 683.83 0 A 62.17 62.17 0 0 0 746 62.17" fill="#a146d9"/><rect x="0" y="62.17" width="62.17" height="62.17" fill="#ac5cde"/><polygon points="0,62.17 62.17,62.17 0,124.34" fill="#e8f0f9"/><rect x="62.17" y="62.17" width="62.17" height="62.17" fill="#eff5fa"/><polygon points="124.34,62.17 124.34,124.34 62.17,124.34" fill="#e3eef8"/><rect x="124.33" y="62.17" width="62.17" height="62.17" fill="#e6eff9"/><path d="M 124.33 62.17 A 62.17 62.17 0 0 0 186.5 124.34 L 186.5 62.17" fill="#dbbaf0"/><rect x="186.5" y="62.17" width="62.17" height="62.17" fill="#ad5fde"/><rect x="186.5" y="62.17" width="62.17" height="62.17" fill="#f5f8fb"/><rect x="248.67" y="62.17" width="62.17" height="62.17" fill="#f5f8fb"/><path d="M 248.67 124.34 A 62.17 62.17 0 0 0 310.84 62.17 L 248.67 62.17" fill="#f9f6fb"/><rect x="310.83" y="62.17" width="62.17" height="62.17" fill="#d8b5ee"/><path d="M 310.83 62.17 A 62.17 62.17 0 0 0 373 124.34 L 373 62.17" fill="#9b39d7"/><rect x="373" y="62.17" width="62.17" height="62.17" fill="#dceaf7"/><polygon points="435.17,62.17 435.17,124.34 373,124.34" fill="#e6eff9"/><rect x="435.17" y="62.17" width="62.17" height="62.17" fill="#ecf3fa"/><path d="M 435.17 62.17 A 62.17 62.17 0 0 1 497.34000000000003 124.34 L 435.17 124.34" fill="#a650db"/><rect x="497.33" y="62.17" width="62.17" height="62.17" fill="#8c1cd1"/><path d="M 497.33 62.17 A 62.17 62.17 0 0 1  559.5 124.34 L 497.33 62.17 A 62.17 62.17 0 0 0 559.5 124.34" fill="#e4eef9"/><rect x="559.5" y="62.17" width="62.17" height="62.17" fill="#b063df"/><polygon points="559.5,62.17 621.67,124.34 559.5,124.34" fill="#f9fafc"/><rect x="621.67" y="62.17" width="62.17" height="62.17" fill="#9024d3"/><polygon points="621.67,62.17 683.8399999999999,124.34 621.67,124.34" fill="#ead8f5"/><rect x="683.83" y="62.17" width="62.17" height="62.17" fill="#f9fafc"/><path d="M 683.83 124.34 A 62.17 62.17 0 0 1  746 62.17 L 683.83 124.34 A 62.17 62.17 0 0 0 746 62.17" fill="#e3eef8"/><rect x="0" y="124.33" width="62.17" height="62.17" fill="#c690e7"/><path d="M 0 124.33 A 62.17 62.17 0 0 1  62.17 186.5 L 0 124.33 A 62.17 62.17 0 0 0 62.17 186.5" fill="#f5f8fb"/><rect x="62.17" y="124.33" width="62.17" height="62.17" fill="#9229d4"/><path d="M 62.17 186.5 A 62.17 62.17 0 0 0 124.34 124.33 L 62.17 124.33" fill="#ddeaf8"/><rect x="124.33" y="124.33" width="62.17" height="62.17" fill="#c287e6"/><polygon points="124.33,124.33 186.5,124.33 186.5,186.5" fill="#e0ecf8"/><rect x="186.5" y="124.33" width="62.17" height="62.17" fill="#dbe9f7"/><polygon points="186.5,124.33 248.67000000000002,124.33 186.5,186.5" fill="#a249da"/><rect x="248.67" y="124.33" width="62.17" height="62.17" fill="#bd7de4"/><polygon points="310.84,124.33 310.84,186.5 248.67,186.5" fill="#b064df"/><rect x="310.83" y="124.33" width="62.17" height="62.17" fill="#eee0f7"/><rect x="310.83" y="124.33" width="62.17" height="62.17" fill="#e5cef3"/><rect x="373" y="124.33" width="62.17" height="62.17" fill="#deebf8"/><path d="M 373 124.33 A 62.17 62.17 0 0 1 435.17 186.5 L 373 186.5" fill="#9631d5"/><rect x="435.17" y="124.33" width="62.17" height="62.17" fill="#c58de7"/><polygon points="497.34000000000003,124.33 497.34000000000003,186.5 435.17,186.5" fill="#c792e8"/><rect x="497.33" y="124.33" width="62.17" height="62.17" fill="#e2edf8"/><rect x="497.33" y="124.33" width="62.17" height="62.17" fill="#dbe9f7"/><rect x="559.5" y="124.33" width="62.17" height="62.17" fill="#c58de7"/><polygon points="621.67,124.33 621.67,186.5 559.5,186.5" fill="#e7d2f4"/><rect x="621.67" y="124.33" width="62.17" height="62.17" fill="#e0ecf8"/><rect x="621.67" y="124.33" width="62.17" height="62.17" fill="#f9fafc"/><rect x="683.83" y="124.33" width="62.17" height="62.17" fill="#e5eff9"/><path d="M 683.83 124.33 A 62.17 62.17 0 0 1  746 186.5 L 683.83 124.33 A 62.17 62.17 0 0 0 746 186.5" fill="#a853dc"/><rect x="0" y="186.5" width="62.17" height="62.17" fill="#eef4fa"/><path d="M 0 248.67000000000002 A 62.17 62.17 0 0 0 62.17 186.5 L 0 186.5" fill="#e1ecf8"/><rect x="62.17" y="186.5" width="62.17" height="62.17" fill="#ddeaf8"/><path d="M 62.17 186.5 A 62.17 62.17 0 0 1 124.34 248.67000000000002 L 62.17 248.67000000000002" fill="#f0f5fa"/><rect x="124.33" y="186.5" width="62.17" height="62.17" fill="#f4ebf9"/><rect x="124.33" y="186.5" width="62.17" height="62.17" fill="#f6f8fb"/><rect x="186.5" y="186.5" width="62.17" height="62.17" fill="#f1f6fa"/><polygon points="186.5,186.5 248.67000000000002,248.67000000000002 186.5,248.67000000000002" fill="#b977e3"/><rect x="248.67" y="186.5" width="62.17" height="62.17" fill="#9937d6"/><path d="M 248.67 186.5 A 62.17 62.17 0 0 1 310.84 248.67000000000002 L 248.67 248.67000000000002" fill="#aa58dd"/><rect x="310.83" y="186.5" width="62.17" height="62.17" fill="#eee0f7"/><path d="M 310.83 186.5 A 62.17 62.17 0 0 1 373 248.67000000000002 L 310.83 248.67000000000002" fill="#f3f7fb"/><rect x="373" y="186.5" width="62.17" height="62.17" fill="#c186e6"/><polygon points="373,186.5 435.17,186.5 435.17,248.67000000000002" fill="#ddeaf8"/><rect x="435.17" y="186.5" width="62.17" height="62.17" fill="#cfa1eb"/><polygon points="435.17,186.5 497.34000000000003,186.5 497.34000000000003,248.67000000000002" fill="#c288e6"/><rect x="497.33" y="186.5" width="62.17" height="62.17" fill="#b36be0"/><polygon points="559.5,186.5 559.5,248.67000000000002 497.33,248.67000000000002" fill="#962fd5"/><rect x="559.5" y="186.5" width="62.17" height="62.17" fill="#eef4fa"/><path d="M 559.5 186.5 A 62.17 62.17 0 0 0 621.67 248.67000000000002 L 621.67 186.5" fill="#e7f0f9"/><rect x="621.67" y="186.5" width="62.17" height="62.17" fill="#eaf2f9"/><polygon points="621.67,186.5 683.8399999999999,186.5 621.67,248.67000000000002" fill="#9d3ed8"/><rect x="683.83" y="186.5" width="62.17" height="62.17" fill="#ddbdf0"/><path d="M 683.83 248.67000000000002 A 62.17 62.17 0 0 1  746 186.5 L 683.83 248.67000000000002 A 62.17 62.17 0 0 0 746 186.5" fill="#c186e6"/><rect x="0" y="248.67" width="62.17" height="62.17" fill="#942cd4"/><polygon points="62.17,248.67 62.17,310.84 0,310.84" fill="#e5eff9"/><rect x="62.17" y="248.67" width="62.17" height="62.17" fill="#9631d5"/><polygon points="62.17,248.67 124.34,310.84 62.17,310.84" fill="#dceaf7"/><rect x="124.33" y="248.67" width="62.17" height="62.17" fill="#e9d6f5"/><rect x="124.33" y="248.67" width="62.17" height="62.17" fill="#dceaf7"/><rect x="186.5" y="248.67" width="62.17" height="62.17" fill="#c288e6"/><polygon points="186.5,248.67 248.67000000000002,248.67 186.5,310.84" fill="#c085e5"/><rect x="248.67" y="248.67" width="62.17" height="62.17" fill="#f3f7fb"/><polygon points="248.67,248.67 310.84,248.67 248.67,310.84" fill="#f9fafc"/><rect x="310.83" y="248.67" width="62.17" height="62.17" fill="#dceaf7"/><polygon points="310.83,248.67 373,310.84 310.83,310.84" fill="#f5edf9"/><rect x="373" y="248.67" width="62.17" height="62.17" fill="#e3eef8"/><path d="M 373 248.67 A 62.17 62.17 0 0 1  435.17 310.84 L 373 248.67 A 62.17 62.17 0 0 0 435.17 310.84" fill="#dceaf7"/><rect x="435.17" y="248.67" width="62.17" height="62.17" fill="#b875e2"/><path d="M 435.17 310.84 A 62.17 62.17 0 0 1  497.34000000000003 248.67 L 435.17 310.84 A 62.17 62.17 0 0 0 497.34000000000003 248.67" fill="#a855dc"/><rect x="497.33" y="248.67" width="62.17" height="62.17" fill="#f2f6fb"/><path d="M 497.33 310.84 A 62.17 62.17 0 0 0 559.5 248.67 L 497.33 248.67" fill="#ca99e9"/><rect x="559.5" y="248.67" width="62.17" height="62.17" fill="#faf7fb"/><rect x="559.5" y="248.67" width="62.17" height="62.17" fill="#e9f1f9"/><rect x="621.67" y="248.67" width="62.17" height="62.17" fill="#f7f9fb"/><path d="M 621.67 310.84 A 62.17 62.17 0 0 1  683.8399999999999 248.67 L 683.8399999999999 310.84" fill="#f9f6fb"/><rect x="683.83" y="248.67" width="62.17" height="62.17" fill="#f3f7fb"/><path d="M 683.83 248.67 A 62.17 62.17 0 0 0 746 310.84 L 746 248.67" fill="#b36ae0"/><rect x="0" y="310.83" width="62.17" height="62.17" fill="#dfebf8"/><path d="M 0 373 A 62.17 62.17 0 0 1  62.17 310.83 L 62.17 373" fill="#f1f6fa"/><rect x="62.17" y="310.83" width="62.17" height="62.17" fill="#cb99e9"/><polygon points="124.34,310.83 124.34,373 62.17,373" fill="#f2e7f8"/><rect x="124.33" y="310.83" width="62.17" height="62.17" fill="#a248da"/><rect x="124.33" y="310.83" width="62.17" height="62.17" fill="#dbbaef"/><rect x="186.5" y="310.83" width="62.17" height="62.17" fill="#a54edb"/><polygon points="248.67000000000002,310.83 248.67000000000002,373 186.5,373" fill="#e9f1f9"/><rect x="248.67" y="310.83" width="62.17" height="62.17" fill="#e4eff9"/><path d="M 248.67 373 A 62.17 62.17 0 0 1  310.84 310.83 L 248.67 373 A 62.17 62.17 0 0 0 310.84 310.83" fill="#d6afed"/><rect x="310.83" y="310.83" width="62.17" height="62.17" fill="#f8f9fb"/><polygon points="310.83,310.83 373,373 310.83,373" fill="#f2e7f8"/><rect x="373" y="310.83" width="62.17" height="62.17" fill="#fbfcfc"/><path d="M 373 310.83 A 62.17 62.17 0 0 1 435.17 373 L 373 373" fill="#f0f5fa"/><rect x="435.17" y="310.83" width="62.17" height="62.17" fill="#ddeaf8"/><path d="M 435.17 373 A 62.17 62.17 0 0 1  497.34000000000003 310.83 L 497.34000000000003 373" fill="#dbb9ef"/><rect x="497.33" y="310.83" width="62.17" height="62.17" fill="#ca99e9"/><polygon points="497.33,310.83 559.5,310.83 497.33,373" fill="#f0f5fa"/><rect x="559.5" y="310.83" width="62.17" height="62.17" fill="#e2edf8"/><rect x="559.5" y="310.83" width="62.17" height="62.17" fill="#9937d6"/><rect x="621.67" y="310.83" width="62.17" height="62.17" fill="#deebf8"/><path d="M 621.67 310.83 A 62.17 62.17 0 0 1 683.8399999999999 373 L 621.67 373" fill="#fafbfc"/><rect x="683.83" y="310.83" width="62.17" height="62.17" fill="#d7b2ee"/><path d="M 683.83 373 A 62.17 62.17 0 0 0 746 310.83 L 683.83 310.83" fill="#b064df"/></g></svg>