<?xml version="1.0" standalone="no"?><svg xmlns:xlink="http://www.w3.org/1999/xlink" xmlns="http://www.w3.org/2000/svg" viewBox="0 0 1000 545.4548113355161" preserveAspectRatio="xMaxYMax slice"><g transform="scale(1.4623453387011156)"><rect x="0" y="0" width="683.8333333333333" height="373" fill="#ffffff"/><rect x="0" y="0" width="62.17" height="62.17" fill="#deee83"/><rect x="0" y="0" width="62.17" height="62.17" fill="#96d8f2"/><rect x="62.17" y="0" width="62.17" height="62.17" fill="#ffffff"/><rect x="62.17" y="0" width="62.17" height="62.17" fill="#85d1f0"/><rect x="124.33" y="0" width="62.17" height="62.17" fill="#eff6c1"/><polygon points="186.5,0 186.5,62.17 124.33,62.17" fill="#3fb7e7"/><rect x="186.5" y="0" width="62.17" height="62.17" fill="#8ad3f1"/><rect x="186.5" y="0" width="62.17" height="62.17" fill="#53beea"/><rect x="248.67" y="0" width="62.17" height="62.17" fill="#d6f0fa"/><polygon points="248.67,0 310.84,62.17 248.67,62.17" fill="#f5fad8"/><rect x="310.83" y="0" width="62.17" height="62.17" fill="#f1f8cb"/><polygon points="310.83,0 373,0 373,62.17" fill="#ffffff"/><rect x="373" y="0" width="62.17" height="62.17" fill="#deee81"/><rect x="373" y="0" width="62.17" height="62.17" fill="#eff7c2"/><rect x="435.17" y="0" width="62.17" height="62.17" fill="#9a9a9a"/><rect x="435.17" y="0" width="62.17" height="62.17" fill="#ffffff"/><rect x="497.33" y="0" width="62.17" height="62.17" fill="#daec73"/><polygon points="497.33,0 559.5,0 559.5,62.17" fill="#dded7d"/><rect x="559.5" y="0" width="62.17" height="62.17" fill="#89d2f0"/><polygon points="559.5,0 621.67,62.17 559.5,62.17" fill="#eff7c3"/><rect x="621.67" y="0" width="62.17" height="62.17" fill="#b6b6b6"/><rect x="621.67" y="0" width="62.17" height="62.17" fill="#ffffff"/><rect x="0" y="62.17" width="62.17" height="62.17" fill="#f5fbfe"/><polygon points="62.17,62.17 62.17,124.34 0,124.34" fill="#d2eef9"/><rect x="62.17" y="62.17" width="62.17" height="62.17" fill="#79cdee"/><rect x="62.17" y="62.17" width="62.17" height="62.17" fill="#ffffff"/><rect x="124.33" y="62.17" width="62.17" height="62.17" fill="#70c9ed"/><rect x="124.33" y="62.17" width="62.17" height="62.17" fill="#87d2f0"/><rect x="186.5" y="62.17" width="62.17" height="62.17" fill="#def3fb"/><rect x="186.5" y="62.17" width="62.17" height="62.17" fill="#f3f9d1"/><rect x="248.67" y="62.17" width="62.17" height="62.17" fill="#bfe7f7"/><polygon points="248.67,62.17 310.84,62.17 310.84,124.34" fill="#ffffff"/><rect x="310.83" y="62.17" width="62.17" height="62.17" fill="#474747"/><polygon points="310.83,62.17 373,62.17 310.83,124.34" fill="#ffffff"/><rect x="373" y="62.17" width="62.17" height="62.17" fill="#8ed4f1"/><rect x="373" y="62.17" width="62.17" height="62.17" fill="#ffffff"/><rect x="435.17" y="62.17" width="62.17" height="62.17" fill="#5dc2eb"/><polygon points="435.17,62.17 497.34000000000003,62.17 497.34000000000003,124.34" fill="#9ad9f2"/><rect x="497.33" y="62.17" width="62.17" height="62.17" fill="#f3fbfe"/><rect x="497.33" y="62.17" width="62.17" height="62.17" fill="#303030"/><rect x="559.5" y="62.17" width="62.17" height="62.17" fill="#ffffff"/><polygon points="621.67,62.17 621.67,124.34 559.5,124.34" fill="#ffffff"/><rect x="621.67" y="62.17" width="62.17" height="62.17" fill="#fefefb"/><polygon points="621.67,62.17 683.8399999999999,62.17 621.67,124.34" fill="#aee1f5"/><rect x="0" y="124.33" width="62.17" height="62.17" fill="#6cc8ed"/><polygon points="0,124.33 62.17,186.5 0,186.5" fill="#cbebf9"/><rect x="62.17" y="124.33" width="62.17" height="62.17" fill="#ffffff"/><polygon points="124.34,124.33 124.34,186.5 62.17,186.5" fill="#ffffff"/><rect x="124.33" y="124.33" width="62.17" height="62.17" fill="#76cbee"/><polygon points="124.33,124.33 186.5,186.5 124.33,186.5" fill="#ffffff"/><rect x="186.5" y="124.33" width="62.17" height="62.17" fill="#9edaf3"/><polygon points="186.5,124.33 248.67000000000002,124.33 248.67000000000002,186.5" fill="#ffffff"/><rect x="248.67" y="124.33" width="62.17" height="62.17" fill="#ffffff"/><rect x="248.67" y="124.33" width="62.17" height="62.17" fill="#3db6e7"/><rect x="310.83" y="124.33" width="62.17" height="62.17" fill="#fcfef5"/><polygon points="310.83,124.33 373,186.5 310.83,186.5" fill="#8ad3f1"/><rect x="373" y="124.33" width="62.17" height="62.17" fill="#d4d4d4"/><rect x="373" y="124.33" width="62.17" height="62.17" fill="#ffffff"/><rect x="435.17" y="124.33" width="62.17" height="62.17" fill="#7ecfef"/><rect x="435.17" y="124.33" width="62.17" height="62.17" fill="#888888"/><rect x="497.33" y="124.33" width="62.17" height="62.17" fill="#b1e1f5"/><polygon points="497.33,124.33 559.5,186.5 497.33,186.5" fill="#7f7f7f"/><rect x="559.5" y="124.33" width="62.17" height="62.17" fill="#1b1b1b"/><rect x="559.5" y="124.33" width="62.17" height="62.17" fill="#f6fcfe"/><rect x="621.67" y="124.33" width="62.17" height="62.17" fill="#e5f19b"/><polygon points="621.67,124.33 683.8399999999999,186.5 621.67,186.5" fill="#4ebce9"/><rect x="0" y="186.5" width="62.17" height="62.17" fill="#e1f4fb"/><polygon points="0,186.5 62.17,186.5 62.17,248.67000000000002" fill="#ffffff"/><rect x="62.17" y="186.5" width="62.17" height="62.17" fill="#ffffff"/><rect x="62.17" y="186.5" width="62.17" height="62.17" fill="#181818"/><rect x="124.33" y="186.5" width="62.17" height="62.17" fill="#d9f1fa"/><polygon points="124.33,186.5 186.5,248.67000000000002 124.33,248.67000000000002" fill="#ffffff"/><rect x="186.5" y="186.5" width="62.17" height="62.17" fill="#fafafa"/><rect x="186.5" y="186.5" width="62.17" height="62.17" fill="#ffffff"/><rect x="248.67" y="186.5" width="62.17" height="62.17" fill="#eff9fd"/><rect x="248.67" y="186.5" width="62.17" height="62.17" fill="#71c9ed"/><rect x="310.83" y="186.5" width="62.17" height="62.17" fill="#dced7b"/><rect x="310.83" y="186.5" width="62.17" height="62.17" fill="#eff7c4"/><rect x="373" y="186.5" width="62.17" height="62.17" fill="#f9fdfe"/><rect x="373" y="186.5" width="62.17" height="62.17" fill="#f4fbfe"/><rect x="435.17" y="186.5" width="62.17" height="62.17" fill="#ffffff"/><rect x="435.17" y="186.5" width="62.17" height="62.17" fill="#3e3e3e"/><rect x="497.33" y="186.5" width="62.17" height="62.17" fill="#7fcfef"/><polygon points="559.5,186.5 559.5,248.67000000000002 497.33,248.67000000000002" fill="#ebf5b4"/><rect x="559.5" y="186.5" width="62.17" height="62.17" fill="#e9f4ac"/><polygon points="621.67,186.5 621.67,248.67000000000002 559.5,248.67000000000002" fill="#cdecf9"/><rect x="621.67" y="186.5" width="62.17" height="62.17" fill="#b6e3f6"/><rect x="621.67" y="186.5" width="62.17" height="62.17" fill="#ceedf9"/><rect x="0" y="248.67" width="62.17" height="62.17" fill="#191919"/><rect x="0" y="248.67" width="62.17" height="62.17" fill="#c8eaf8"/><rect x="62.17" y="248.67" width="62.17" height="62.17" fill="#b3e2f6"/><polygon points="62.17,248.67 124.34,248.67 62.17,310.84" fill="#dced7c"/><rect x="124.33" y="248.67" width="62.17" height="62.17" fill="#ffffff"/><polygon points="124.33,248.67 186.5,248.67 186.5,310.84" fill="#6cc8ed"/><rect x="186.5" y="248.67" width="62.17" height="62.17" fill="#33b2e6"/><rect x="186.5" y="248.67" width="62.17" height="62.17" fill="#93d6f2"/><rect x="248.67" y="248.67" width="62.17" height="62.17" fill="#e6f5fc"/><rect x="248.67" y="248.67" width="62.17" height="62.17" fill="#42b8e7"/><rect x="310.83" y="248.67" width="62.17" height="62.17" fill="#eaf4b0"/><rect x="310.83" y="248.67" width="62.17" height="62.17" fill="#ffffff"/><rect x="373" y="248.67" width="62.17" height="62.17" fill="#caebf8"/><polygon points="373,248.67 435.17,310.84 373,310.84" fill="#2fb0e5"/><rect x="435.17" y="248.67" width="62.17" height="62.17" fill="#f6fadd"/><rect x="435.17" y="248.67" width="62.17" height="62.17" fill="#86d1f0"/><rect x="497.33" y="248.67" width="62.17" height="62.17" fill="#4a4a4a"/><rect x="497.33" y="248.67" width="62.17" height="62.17" fill="#3e3e3e"/><rect x="559.5" y="248.67" width="62.17" height="62.17" fill="#afafaf"/><polygon points="621.67,248.67 621.67,310.84 559.5,310.84" fill="#575757"/><rect x="621.67" y="248.67" width="62.17" height="62.17" fill="#eef6bf"/><rect x="621.67" y="248.67" width="62.17" height="62.17" fill="#ffffff"/><rect x="0" y="310.83" width="62.17" height="62.17" fill="#ffffff"/><polygon points="0,310.83 62.17,310.83 0,373" fill="#9ad9f2"/><rect x="62.17" y="310.83" width="62.17" height="62.17" fill="#ffffff"/><rect x="62.17" y="310.83" width="62.17" height="62.17" fill="#f6fadd"/><rect x="124.33" y="310.83" width="62.17" height="62.17" fill="#575757"/><rect x="124.33" y="310.83" width="62.17" height="62.17" fill="#def3fb"/><rect x="186.5" y="310.83" width="62.17" height="62.17" fill="#f7fbe0"/><polygon points="186.5,310.83 248.67000000000002,310.83 248.67000000000002,373" fill="#d6f0fa"/><rect x="248.67" y="310.83" width="62.17" height="62.17" fill="#d4e95e"/><rect x="248.67" y="310.83" width="62.17" height="62.17" fill="#d3e85a"/><rect x="310.83" y="310.83" width="62.17" height="62.17" fill="#dfdfdf"/><polygon points="373,310.83 373,373 310.83,373" fill="#ffffff"/><rect x="373" y="310.83" width="62.17" height="62.17" fill="#f2f8ce"/><polygon points="373,310.83 435.17,310.83 435.17,373" fill="#dedede"/><rect x="435.17" y="310.83" width="62.17" height="62.17" fill="#3ab5e6"/><polygon points="435.17,310.83 497.34000000000003,310.83 435.17,373" fill="#ffffff"/><rect x="497.33" y="310.83" width="62.17" height="62.17" fill="#dadada"/><polygon points="497.33,310.83 559.5,310.83 559.5,373" fill="#c8eaf8"/><rect x="559.5" y="310.83" width="62.17" height="62.17" fill="#9fdbf3"/><polygon points="559.5,310.83 621.67,373 559.5,373" fill="#42b8e8"/><rect x="621.67" y="310.83" width="62.17" height="62.17" fill="#e1ef8d"/><polygon points="621.67,310.83 683.8399999999999,310.83 683.8399999999999,373" fill="#dbec78"/></g></svg>