<?xml version="1.0" standalone="no"?><svg xmlns:xlink="http://www.w3.org/1999/xlink" xmlns="http://www.w3.org/2000/svg" viewBox="0 0 1000 545.4548113355161" preserveAspectRatio="xMaxYMax slice"><g transform="scale(1.4623453387011156)"><rect x="0" y="0" width="683.8333333333333" height="373" fill="#5e78de"/><rect x="0" y="0" width="62.17" height="62.17" fill="#405197"/><rect x="0" y="0" width="62.17" height="62.17" fill="#36457f"/><rect x="62.17" y="0" width="62.17" height="62.17" fill="#5e8fe3"/><rect x="62.17" y="0" width="62.17" height="62.17" fill="#080b14"/><rect x="124.33" y="0" width="62.17" height="62.17" fill="#324077"/><polygon points="124.33,0 186.5,0 124.33,62.17" fill="#13182d"/><rect x="186.5" y="0" width="62.17" height="62.17" fill="#12172b"/><rect x="186.5" y="0" width="62.17" height="62.17" fill="#5e82e0"/><rect x="248.67" y="0" width="62.17" height="62.17" fill="#35437d"/><polygon points="310.84,0 310.84,62.17 248.67,62.17" fill="#5fb4ea"/><rect x="310.83" y="0" width="62.17" height="62.17" fill="#5ea0e6"/><rect x="310.83" y="0" width="62.17" height="62.17" fill="#5fb0e9"/><rect x="373" y="0" width="62.17" height="62.17" fill="#4457a1"/><rect x="373" y="0" width="62.17" height="62.17" fill="#5fb4ea"/><rect x="435.17" y="0" width="62.17" height="62.17" fill="#5b74d7"/><rect x="435.17" y="0" width="62.17" height="62.17" fill="#5faee9"/><rect x="497.33" y="0" width="62.17" height="62.17" fill="#04050a"/><polygon points="497.33,0 559.5,0 497.33,62.17" fill="#28335e"/><rect x="559.5" y="0" width="62.17" height="62.17" fill="#5e88e1"/><polygon points="559.5,0 621.67,62.17 559.5,62.17" fill="#5e7fdf"/><rect x="621.67" y="0" width="62.17" height="62.17" fill="#5fceef"/><polygon points="683.8399999999999,0 683.8399999999999,62.17 621.67,62.17" fill="#1e2647"/><rect x="0" y="62.17" width="62.17" height="62.17" fill="#5fc7ee"/><polygon points="62.17,62.17 62.17,124.34 0,124.34" fill="#5fb6ea"/><rect x="62.17" y="62.17" width="62.17" height="62.17" fill="#4e63b7"/><polygon points="62.17,62.17 124.34,124.34 62.17,124.34" fill="#5e97e4"/><rect x="124.33" y="62.17" width="62.17" height="62.17" fill="#364580"/><rect x="124.33" y="62.17" width="62.17" height="62.17" fill="#5e90e3"/><rect x="186.5" y="62.17" width="62.17" height="62.17" fill="#5e9de5"/><polygon points="248.67000000000002,62.17 248.67000000000002,124.34 186.5,124.34" fill="#5fd3f0"/><rect x="248.67" y="62.17" width="62.17" height="62.17" fill="#5ea3e6"/><polygon points="248.67,62.17 310.84,124.34 248.67,124.34" fill="#2a3664"/><rect x="310.83" y="62.17" width="62.17" height="62.17" fill="#4659a5"/><polygon points="310.83,62.17 373,62.17 373,124.34" fill="#5fbfec"/><rect x="373" y="62.17" width="62.17" height="62.17" fill="#5e82e0"/><polygon points="373,62.17 435.17,62.17 373,124.34" fill="#415399"/><rect x="435.17" y="62.17" width="62.17" height="62.17" fill="#5fd4f0"/><rect x="435.17" y="62.17" width="62.17" height="62.17" fill="#405297"/><rect x="497.33" y="62.17" width="62.17" height="62.17" fill="#5fc5ed"/><polygon points="497.33,62.17 559.5,124.34 497.33,124.34" fill="#0c0f1c"/><rect x="559.5" y="62.17" width="62.17" height="62.17" fill="#576fcd"/><rect x="559.5" y="62.17" width="62.17" height="62.17" fill="#5ea4e7"/><rect x="621.67" y="62.17" width="62.17" height="62.17" fill="#5e7ade"/><polygon points="621.67,62.17 683.8399999999999,124.34 621.67,124.34" fill="#5a72d3"/><rect x="0" y="124.33" width="62.17" height="62.17" fill="#080a13"/><rect x="0" y="124.33" width="62.17" height="62.17" fill="#5ea5e7"/><rect x="62.17" y="124.33" width="62.17" height="62.17" fill="#0a0d18"/><rect x="62.17" y="124.33" width="62.17" height="62.17" fill="#2f3c6f"/><rect x="124.33" y="124.33" width="62.17" height="62.17" fill="#020204"/><rect x="124.33" y="124.33" width="62.17" height="62.17" fill="#475aa7"/><rect x="186.5" y="124.33" width="62.17" height="62.17" fill="#35437d"/><rect x="186.5" y="124.33" width="62.17" height="62.17" fill="#475ba8"/><rect x="248.67" y="124.33" width="62.17" height="62.17" fill="#5e85e1"/><polygon points="310.84,124.33 310.84,186.5 248.67,186.5" fill="#1d2646"/><rect x="310.83" y="124.33" width="62.17" height="62.17" fill="#010203"/><polygon points="310.83,124.33 373,186.5 310.83,186.5" fill="#5e84e0"/><rect x="373" y="124.33" width="62.17" height="62.17" fill="#3d4e8f"/><rect x="373" y="124.33" width="62.17" height="62.17" fill="#242e55"/><rect x="435.17" y="124.33" width="62.17" height="62.17" fill="#040509"/><rect x="435.17" y="124.33" width="62.17" height="62.17" fill="#5ea3e6"/><rect x="497.33" y="124.33" width="62.17" height="62.17" fill="#5fbdec"/><polygon points="497.33,124.33 559.5,124.33 497.33,186.5" fill="#1d2544"/><rect x="559.5" y="124.33" width="62.17" height="62.17" fill="#4b60b2"/><polygon points="559.5,124.33 621.67,186.5 559.5,186.5" fill="#5ea4e7"/><rect x="621.67" y="124.33" width="62.17" height="62.17" fill="#5770ce"/><polygon points="621.67,124.33 683.8399999999999,124.33 621.67,186.5" fill="#5fbdec"/><rect x="0" y="186.5" width="62.17" height="62.17" fill="#5e84e0"/><rect x="0" y="186.5" width="62.17" height="62.17" fill="#5e8ee2"/><rect x="62.17" y="186.5" width="62.17" height="62.17" fill="#5e82e0"/><polygon points="124.34,186.5 124.34,248.67000000000002 62.17,248.67000000000002" fill="#5e99e4"/><rect x="124.33" y="186.5" width="62.17" height="62.17" fill="#5e7cdf"/><rect x="124.33" y="186.5" width="62.17" height="62.17" fill="#5e92e3"/><rect x="186.5" y="186.5" width="62.17" height="62.17" fill="#4d62b6"/><polygon points="186.5,186.5 248.67000000000002,186.5 186.5,248.67000000000002" fill="#1f284a"/><rect x="248.67" y="186.5" width="62.17" height="62.17" fill="#5e7cdf"/><rect x="248.67" y="186.5" width="62.17" height="62.17" fill="#556cc8"/><rect x="310.83" y="186.5" width="62.17" height="62.17" fill="#27325d"/><rect x="310.83" y="186.5" width="62.17" height="62.17" fill="#5e7edf"/><rect x="373" y="186.5" width="62.17" height="62.17" fill="#5a73d5"/><rect x="373" y="186.5" width="62.17" height="62.17" fill="#4a5eaf"/><rect x="435.17" y="186.5" width="62.17" height="62.17" fill="#5e80e0"/><rect x="435.17" y="186.5" width="62.17" height="62.17" fill="#5faae8"/><rect x="497.33" y="186.5" width="62.17" height="62.17" fill="#566ecb"/><rect x="497.33" y="186.5" width="62.17" height="62.17" fill="#5e7ddf"/><rect x="559.5" y="186.5" width="62.17" height="62.17" fill="#374681"/><polygon points="559.5,186.5 621.67,248.67000000000002 559.5,248.67000000000002" fill="#28335f"/><rect x="621.67" y="186.5" width="62.17" height="62.17" fill="#1a213d"/><rect x="621.67" y="186.5" width="62.17" height="62.17" fill="#5e90e3"/><rect x="0" y="248.67" width="62.17" height="62.17" fill="#5e8be2"/><rect x="0" y="248.67" width="62.17" height="62.17" fill="#000001"/><rect x="62.17" y="248.67" width="62.17" height="62.17" fill="#12172b"/><polygon points="62.17,248.67 124.34,310.84 62.17,310.84" fill="#020204"/><rect x="124.33" y="248.67" width="62.17" height="62.17" fill="#5fd6f0"/><rect x="124.33" y="248.67" width="62.17" height="62.17" fill="#222b50"/><rect x="186.5" y="248.67" width="62.17" height="62.17" fill="#13192e"/><rect x="186.5" y="248.67" width="62.17" height="62.17" fill="#485caa"/><rect x="248.67" y="248.67" width="62.17" height="62.17" fill="#070911"/><rect x="248.67" y="248.67" width="62.17" height="62.17" fill="#20284a"/><rect x="310.83" y="248.67" width="62.17" height="62.17" fill="#5fd5f0"/><rect x="310.83" y="248.67" width="62.17" height="62.17" fill="#5e9ae5"/><rect x="373" y="248.67" width="62.17" height="62.17" fill="#5e88e1"/><rect x="373" y="248.67" width="62.17" height="62.17" fill="#141a2f"/><rect x="435.17" y="248.67" width="62.17" height="62.17" fill="#1d2545"/><rect x="435.17" y="248.67" width="62.17" height="62.17" fill="#5ea5e7"/><rect x="497.33" y="248.67" width="62.17" height="62.17" fill="#5e86e1"/><rect x="497.33" y="248.67" width="62.17" height="62.17" fill="#5fb6ea"/><rect x="559.5" y="248.67" width="62.17" height="62.17" fill="#171d35"/><polygon points="621.67,248.67 621.67,310.84 559.5,310.84" fill="#5fb3ea"/><rect x="621.67" y="248.67" width="62.17" height="62.17" fill="#5e9fe6"/><rect x="621.67" y="248.67" width="62.17" height="62.17" fill="#5fcdef"/><rect x="0" y="310.83" width="62.17" height="62.17" fill="#263059"/><rect x="0" y="310.83" width="62.17" height="62.17" fill="#5fb0e9"/><rect x="62.17" y="310.83" width="62.17" height="62.17" fill="#5e8ee2"/><rect x="62.17" y="310.83" width="62.17" height="62.17" fill="#5fcaee"/><rect x="124.33" y="310.83" width="62.17" height="62.17" fill="#5e7fdf"/><polygon points="124.33,310.83 186.5,373 124.33,373" fill="#5fb2e9"/><rect x="186.5" y="310.83" width="62.17" height="62.17" fill="#2d3a6b"/><polygon points="248.67000000000002,310.83 248.67000000000002,373 186.5,373" fill="#405297"/><rect x="248.67" y="310.83" width="62.17" height="62.17" fill="#2d3a6b"/><rect x="248.67" y="310.83" width="62.17" height="62.17" fill="#5167bf"/><rect x="310.83" y="310.83" width="62.17" height="62.17" fill="#2c3868"/><rect x="310.83" y="310.83" width="62.17" height="62.17" fill="#42559d"/><rect x="373" y="310.83" width="62.17" height="62.17" fill="#5fccee"/><rect x="373" y="310.83" width="62.17" height="62.17" fill="#0e1222"/><rect x="435.17" y="310.83" width="62.17" height="62.17" fill="#5fb4ea"/><polygon points="435.17,310.83 497.34000000000003,310.83 435.17,373" fill="#5fc8ee"/><rect x="497.33" y="310.83" width="62.17" height="62.17" fill="#04050a"/><polygon points="559.5,310.83 559.5,373 497.33,373" fill="#5fb9eb"/><rect x="559.5" y="310.83" width="62.17" height="62.17" fill="#5e91e3"/><rect x="559.5" y="310.83" width="62.17" height="62.17" fill="#5fb4ea"/><rect x="621.67" y="310.83" width="62.17" height="62.17" fill="#5fb9eb"/><polygon points="621.67,310.83 683.8399999999999,373 621.67,373" fill="#3c4c8d"/></g></svg>