<?xml version="1.0" standalone="no"?><svg xmlns:xlink="http://www.w3.org/1999/xlink" xmlns="http://www.w3.org/2000/svg" viewBox="0 0 1000 500" preserveAspectRatio="xMaxYMax slice"><g transform="scale(1.3404825737265416)"><rect x="0" y="0" width="746" height="373" fill="#ffffff"/><rect x="0" y="0" width="62.166666666666664" height="62.166666666666664" fill="#ffffff"/><rect x="0" y="0" width="31.08" height="31.08" fill="#ddbcf2"/><polygon points="0,0 31.08,31.08 0,31.08" fill="#8d1ed2"/><rect x="31.08" y="0" width="31.08" height="31.08" fill="#f0e1f9"/><rect x="31.08" y="0" width="31.08" height="31.08" fill="#8f8f8f"/><rect x="0" y="31.08" width="31.08" height="31.08" fill="#a955dd"/><polygon points="0,31.08 31.08,31.08 31.08,62.16" fill="#f6f6f6"/><rect x="31.08" y="31.08" width="31.08" height="31.08" fill="#bb78e4"/><rect x="31.08" y="31.08" width="31.08" height="31.08" fill="#4c4c4c"/><rect x="62.166666666666664" y="0" width="62.166666666666664" height="62.166666666666664" fill="#ffffff"/><rect x="62.17" y="0" width="31.08" height="31.08" fill="#cecece"/><polygon points="93.25,0 93.25,31.08 62.17,31.08" fill="#942dd5"/><rect x="93.25" y="0" width="31.08" height="31.08" fill="#f2f2f2"/><polygon points="93.25,0 124.33,31.08 93.25,31.08" fill="#818181"/><rect x="62.17" y="31.08" width="31.08" height="31.08" fill="#767676"/><polygon points="62.17,31.08 93.25,62.16 62.17,62.16" fill="#d9d9d9"/><rect x="93.25" y="31.08" width="31.08" height="31.08" fill="#6c6c6c"/><polygon points="93.25,31.08 124.33,31.08 124.33,62.16" fill="#8c1bd1"/><rect x="124.33" y="0" width="62.17" height="62.17" fill="#1c1c1c"/><rect x="124.33" y="0" width="62.17" height="62.17" fill="#d8b2f0"/><rect x="186.5" y="0" width="62.17" height="62.17" fill="#eaeaea"/><polygon points="186.5,0 248.67000000000002,62.17 186.5,62.17" fill="#b369e1"/><rect x="248.66666666666666" y="0" width="62.166666666666664" height="62.166666666666664" fill="#ffffff"/><rect x="248.67" y="0" width="31.08" height="31.08" fill="#b2b2b2"/><rect x="248.67" y="0" width="31.08" height="31.08" fill="#e4c9f4"/><rect x="279.75" y="0" width="31.08" height="31.08" fill="#262626"/><rect x="279.75" y="0" width="31.08" height="31.08" fill="#636363"/><rect x="248.67" y="31.08" width="31.08" height="31.08" fill="#fbf7fd"/><rect x="248.67" y="31.08" width="31.08" height="31.08" fill="#5f5f5f"/><rect x="279.75" y="31.08" width="31.08" height="31.08" fill="#bbbbbb"/><rect x="279.75" y="31.08" width="31.08" height="31.08" fill="#eddbf8"/><rect x="310.83" y="0" width="62.17" height="62.17" fill="#d5abee"/><rect x="310.83" y="0" width="62.17" height="62.17" fill="#c68fe8"/><rect x="373" y="0" width="62.166666666666664" height="62.166666666666664" fill="#ffffff"/><rect x="373" y="0" width="31.08" height="31.08" fill="#5d5d5d"/><polygon points="373,0 404.08,0 404.08,31.08" fill="#b267e1"/><rect x="404.08" y="0" width="31.08" height="31.08" fill="#aeaeae"/><polygon points="404.08,0 435.15999999999997,0 404.08,31.08" fill="#efe0f9"/><rect x="373" y="31.08" width="31.08" height="31.08" fill="#141414"/><polygon points="373,31.08 404.08,62.16 373,62.16" fill="#c791e9"/><rect x="404.08" y="31.08" width="31.08" height="31.08" fill="#919191"/><polygon points="404.08,31.08 435.15999999999997,31.08 404.08,62.16" fill="#d0a2ec"/><rect x="435.16666666666663" y="0" width="62.166666666666664" height="62.166666666666664" fill="#ffffff"/><rect x="435.17" y="0" width="31.08" height="31.08" fill="#c892e9"/><rect x="435.17" y="0" width="31.08" height="31.08" fill="#494949"/><rect x="466.25" y="0" width="31.08" height="31.08" fill="#cd9deb"/><polygon points="466.25,0 497.33,31.08 466.25,31.08" fill="#b873e3"/><rect x="435.17" y="31.08" width="31.08" height="31.08" fill="#bd7ce5"/><rect x="435.17" y="31.08" width="31.08" height="31.08" fill="#c6c6c6"/><rect x="466.25" y="31.08" width="31.08" height="31.08" fill="#0f0f0f"/><rect x="466.25" y="31.08" width="31.08" height="31.08" fill="#b8b8b8"/><rect x="497.33" y="0" width="62.17" height="62.17" fill="#a248da"/><polygon points="497.33,0 559.5,62.17 497.33,62.17" fill="#757575"/><rect x="559.5" y="0" width="62.166666666666664" height="62.166666666666664" fill="#ffffff"/><rect x="559.5" y="0" width="31.08" height="31.08" fill="#f0f0f0"/><polygon points="559.5,0 590.58,31.08 559.5,31.08" fill="#9b39d7"/><rect x="590.58" y="0" width="31.08" height="31.08" fill="#8d1ed2"/><rect x="590.58" y="0" width="31.08" height="31.08" fill="#b1b1b1"/><rect x="559.5" y="31.08" width="31.08" height="31.08" fill="#d5d5d5"/><polygon points="590.58,31.08 590.58,62.16 559.5,62.16" fill="#c58ce8"/><rect x="590.58" y="31.08" width="31.08" height="31.08" fill="#a64fdc"/><rect x="590.58" y="31.08" width="31.08" height="31.08" fill="#b46be1"/><rect x="621.67" y="0" width="62.17" height="62.17" fill="#a348da"/><rect x="621.67" y="0" width="62.17" height="62.17" fill="#aeaeae"/><rect x="683.8333333333333" y="0" width="62.166666666666664" height="62.166666666666664" fill="#ffffff"/><rect x="683.83" y="0" width="31.08" height="31.08" fill="#202020"/><rect x="683.83" y="0" width="31.08" height="31.08" fill="#e8d2f6"/><rect x="714.92" y="0" width="31.08" height="31.08" fill="#2d2d2d"/><rect x="714.92" y="0" width="31.08" height="31.08" fill="#a6a6a6"/><rect x="683.83" y="31.08" width="31.08" height="31.08" fill="#d3a9ee"/><rect x="683.83" y="31.08" width="31.08" height="31.08" fill="#090909"/><rect x="714.92" y="31.08" width="31.08" height="31.08" fill="#050505"/><polygon points="714.92,31.08 746,31.08 714.92,62.16" fill="#7a7a7a"/><rect x="0" y="62.17" width="62.17" height="62.17" fill="#a247da"/><rect x="0" y="62.17" width="62.17" height="62.17" fill="#b063e0"/><rect x="62.17" y="62.17" width="62.17" height="62.17" fill="#ac5cde"/><rect x="62.17" y="62.17" width="62.17" height="62.17" fill="#363636"/><rect x="124.33333333333333" y="62.166666666666664" width="62.166666666666664" height="62.166666666666664" fill="#ffffff"/><rect x="124.33" y="62.17" width="31.08" height="31.08" fill="#f0e2f9"/><rect x="124.33" y="62.17" width="31.08" height="31.08" fill="#010101"/><rect x="155.42" y="62.17" width="31.08" height="31.08" fill="#797979"/><polygon points="155.42,62.17 186.5,62.17 155.42,93.25" fill="#565656"/><rect x="124.33" y="93.25" width="31.08" height="31.08" fill="#cb99ea"/><rect x="124.33" y="93.25" width="31.08" height="31.08" fill="#0f0f0f"/><rect x="155.42" y="93.25" width="31.08" height="31.08" fill="#848484"/><polygon points="155.42,93.25 186.5,93.25 186.5,124.33" fill="#616161"/><rect x="186.5" y="62.17" width="62.17" height="62.17" fill="#8c1cd1"/><rect x="186.5" y="62.17" width="62.17" height="62.17" fill="#3b3b3b"/><rect x="248.66666666666666" y="62.166666666666664" width="62.166666666666664" height="62.166666666666664" fill="#ffffff"/><rect x="248.67" y="62.17" width="31.08" height="31.08" fill="#a349da"/><rect x="248.67" y="62.17" width="31.08" height="31.08" fill="#e7cff5"/><rect x="279.75" y="62.17" width="31.08" height="31.08" fill="#191919"/><polygon points="310.83,62.17 310.83,93.25 279.75,93.25" fill="#e1e1e1"/><rect x="248.67" y="93.25" width="31.08" height="31.08" fill="#d2d2d2"/><rect x="248.67" y="93.25" width="31.08" height="31.08" fill="#3c3c3c"/><rect x="279.75" y="93.25" width="31.08" height="31.08" fill="#232323"/><rect x="279.75" y="93.25" width="31.08" height="31.08" fill="#bc7ce5"/><rect x="310.8333333333333" y="62.166666666666664" width="62.166666666666664" height="62.166666666666664" fill="#ffffff"/><rect x="310.83" y="62.17" width="31.08" height="31.08" fill="#a044d9"/><polygon points="310.83,62.17 341.90999999999997,93.25 310.83,93.25" fill="#b063e0"/><rect x="341.92" y="62.17" width="31.08" height="31.08" fill="#b2b2b2"/><polygon points="341.92,62.17 373,93.25 341.92,93.25" fill="#636363"/><rect x="310.83" y="93.25" width="31.08" height="31.08" fill="#8f8f8f"/><polygon points="341.90999999999997,93.25 341.90999999999997,124.33 310.83,124.33" fill="#dfbff2"/><rect x="341.92" y="93.25" width="31.08" height="31.08" fill="#ddbcf2"/><rect x="341.92" y="93.25" width="31.08" height="31.08" fill="#636363"/><rect x="373" y="62.17" width="62.17" height="62.17" fill="#c287e7"/><polygon points="373,62.17 435.17,62.17 373,124.34" fill="#010101"/><rect x="435.16666666666663" y="62.166666666666664" width="62.166666666666664" height="62.166666666666664" fill="#ffffff"/><rect x="435.17" y="62.17" width="31.08" height="31.08" fill="#0d0d0d"/><polygon points="435.17,62.17 466.25,62.17 466.25,93.25" fill="#f6edfb"/><rect x="466.25" y="62.17" width="31.08" height="31.08" fill="#a043d9"/><polygon points="497.33,62.17 497.33,93.25 466.25,93.25" fill="#fcf9fe"/><rect x="435.17" y="93.25" width="31.08" height="31.08" fill="#f1f1f1"/><polygon points="435.17,93.25 466.25,124.33 435.17,124.33" fill="#cfcfcf"/><rect x="466.25" y="93.25" width="31.08" height="31.08" fill="#5d5d5d"/><rect x="466.25" y="93.25" width="31.08" height="31.08" fill="#b063e0"/><rect x="497.3333333333333" y="62.166666666666664" width="62.166666666666664" height="62.166666666666664" fill="#ffffff"/><rect x="497.33" y="62.17" width="31.08" height="31.08" fill="#b1b1b1"/><polygon points="497.33,62.17 528.41,62.17 528.41,93.25" fill="#ca97ea"/><rect x="528.42" y="62.17" width="31.08" height="31.08" fill="#942dd5"/><polygon points="528.42,62.17 559.5,93.25 528.42,93.25" fill="#f2e6fa"/><rect x="497.33" y="93.25" width="31.08" height="31.08" fill="#8e20d2"/><polygon points="497.33,93.25 528.41,124.33 497.33,124.33" fill="#d0a2ec"/><rect x="528.42" y="93.25" width="31.08" height="31.08" fill="#222222"/><rect x="528.42" y="93.25" width="31.08" height="31.08" fill="#f3e8fa"/><rect x="559.5" y="62.166666666666664" width="62.166666666666664" height="62.166666666666664" fill="#ffffff"/><rect x="559.5" y="62.17" width="31.08" height="31.08" fill="#d9d9d9"/><polygon points="559.5,62.17 590.58,62.17 590.58,93.25" fill="#8d8d8d"/><rect x="590.58" y="62.17" width="31.08" height="31.08" fill="#ce9eeb"/><rect x="590.58" y="62.17" width="31.08" height="31.08" fill="#5f5f5f"/><rect x="559.5" y="93.25" width="31.08" height="31.08" fill="#d8b2ef"/><polygon points="559.5,93.25 590.58,93.25 590.58,124.33" fill="#ba77e4"/><rect x="590.58" y="93.25" width="31.08" height="31.08" fill="#141414"/><polygon points="590.58,93.25 621.6600000000001,93.25 590.58,124.33" fill="#272727"/><rect x="621.6666666666666" y="62.166666666666664" width="62.166666666666664" height="62.166666666666664" fill="#ffffff"/><rect x="621.67" y="62.17" width="31.08" height="31.08" fill="#e4e4e4"/><rect x="621.67" y="62.17" width="31.08" height="31.08" fill="#b369e1"/><rect x="652.75" y="62.17" width="31.08" height="31.08" fill="#bd7de5"/><rect x="652.75" y="62.17" width="31.08" height="31.08" fill="#8d1ed2"/><rect x="621.67" y="93.25" width="31.08" height="31.08" fill="#1f1f1f"/><polygon points="621.67,93.25 652.75,124.33 621.67,124.33" fill="#b46ae1"/><rect x="652.75" y="93.25" width="31.08" height="31.08" fill="#debef2"/><polygon points="652.75,93.25 683.83,93.25 652.75,124.33" fill="#8d8d8d"/><rect x="683.8333333333333" y="62.166666666666664" width="62.166666666666664" height="62.166666666666664" fill="#ffffff"/><rect x="683.83" y="62.17" width="31.08" height="31.08" fill="#ab59de"/><rect x="683.83" y="62.17" width="31.08" height="31.08" fill="#cd9ceb"/><rect x="714.92" y="62.17" width="31.08" height="31.08" fill="#8d1ed2"/><rect x="714.92" y="62.17" width="31.08" height="31.08" fill="#f7effc"/><rect x="683.83" y="93.25" width="31.08" height="31.08" fill="#c9c9c9"/><rect x="683.83" y="93.25" width="31.08" height="31.08" fill="#1f1f1f"/><rect x="714.92" y="93.25" width="31.08" height="31.08" fill="#ecd9f7"/><polygon points="714.92,93.25 746,93.25 714.92,124.33" fill="#bfbfbf"/><rect x="0" y="124.33333333333333" width="62.166666666666664" height="62.166666666666664" fill="#ffffff"/><rect x="0" y="124.33" width="31.08" height="31.08" fill="#c287e7"/><polygon points="0,124.33 31.08,124.33 31.08,155.41" fill="#080808"/><rect x="31.08" y="124.33" width="31.08" height="31.08" fill="#c0c0c0"/><rect x="31.08" y="124.33" width="31.08" height="31.08" fill="#525252"/><rect x="0" y="155.42" width="31.08" height="31.08" fill="#bf80e5"/><polygon points="0,155.42 31.08,155.42 31.08,186.5" fill="#ecd9f7"/><rect x="31.08" y="155.42" width="31.08" height="31.08" fill="#090909"/><rect x="31.08" y="155.42" width="31.08" height="31.08" fill="#fefcfe"/><rect x="62.166666666666664" y="124.33333333333333" width="62.166666666666664" height="62.166666666666664" fill="#ffffff"/><rect x="62.17" y="124.33" width="31.08" height="31.08" fill="#6a6a6a"/><rect x="62.17" y="124.33" width="31.08" height="31.08" fill="#ffffff"/><rect x="93.25" y="124.33" width="31.08" height="31.08" fill="#2e2e2e"/><rect x="93.25" y="124.33" width="31.08" height="31.08" fill="#626262"/><rect x="62.17" y="155.42" width="31.08" height="31.08" fill="#932ad4"/><polygon points="62.17,155.42 93.25,155.42 93.25,186.5" fill="#e3c8f4"/><rect x="93.25" y="155.42" width="31.08" height="31.08" fill="#b9b9b9"/><rect x="93.25" y="155.42" width="31.08" height="31.08" fill="#ac5bde"/><rect x="124.33" y="124.33" width="62.17" height="62.17" fill="#6f6f6f"/><polygon points="124.33,124.33 186.5,124.33 186.5,186.5" fill="#8c1cd1"/><rect x="186.5" y="124.33" width="62.17" height="62.17" fill="#9c3cd8"/><rect x="186.5" y="124.33" width="62.17" height="62.17" fill="#b1b1b1"/><rect x="248.67" y="124.33" width="62.17" height="62.17" fill="#d6adef"/><rect x="248.67" y="124.33" width="62.17" height="62.17" fill="#949494"/><rect x="310.83" y="124.33" width="62.17" height="62.17" fill="#cd9deb"/><rect x="310.83" y="124.33" width="62.17" height="62.17" fill="#b56de2"/><rect x="373" y="124.33" width="62.17" height="62.17" fill="#e0e0e0"/><rect x="373" y="124.33" width="62.17" height="62.17" fill="#eaeaea"/><rect x="435.17" y="124.33" width="62.17" height="62.17" fill="#e9d4f6"/><polygon points="435.17,124.33 497.34000000000003,186.5 435.17,186.5" fill="#a2a2a2"/><rect x="497.33" y="124.33" width="62.17" height="62.17" fill="#e1c3f3"/><rect x="497.33" y="124.33" width="62.17" height="62.17" fill="#af61df"/><rect x="559.5" y="124.33" width="62.17" height="62.17" fill="#898989"/><rect x="559.5" y="124.33" width="62.17" height="62.17" fill="#7b7b7b"/><rect x="621.67" y="124.33" width="62.17" height="62.17" fill="#828282"/><rect x="621.67" y="124.33" width="62.17" height="62.17" fill="#0f0f0f"/><rect x="683.8333333333333" y="124.33333333333333" width="62.166666666666664" height="62.166666666666664" fill="#ffffff"/><rect x="683.83" y="124.33" width="31.08" height="31.08" fill="#a8a8a8"/><rect x="683.83" y="124.33" width="31.08" height="31.08" fill="#e7cff5"/><rect x="714.92" y="124.33" width="31.08" height="31.08" fill="#942dd5"/><polygon points="746,124.33 746,155.41 714.92,155.41" fill="#c790e9"/><rect x="683.83" y="155.42" width="31.08" height="31.08" fill="#c7c7c7"/><rect x="683.83" y="155.42" width="31.08" height="31.08" fill="#464646"/><rect x="714.92" y="155.42" width="31.08" height="31.08" fill="#ac5bde"/><polygon points="714.92,155.42 746,155.42 746,186.5" fill="#2c2c2c"/><rect x="0" y="186.5" width="62.166666666666664" height="62.166666666666664" fill="#ffffff"/><rect x="0" y="186.5" width="31.08" height="31.08" fill="#454545"/><rect x="0" y="186.5" width="31.08" height="31.08" fill="#e0c3f3"/><rect x="31.08" y="186.5" width="31.08" height="31.08" fill="#8e1fd2"/><rect x="31.08" y="186.5" width="31.08" height="31.08" fill="#8e20d2"/><rect x="0" y="217.58" width="31.08" height="31.08" fill="#dab6f0"/><polygon points="0,217.58 31.08,217.58 31.08,248.66000000000003" fill="#ab5ade"/><rect x="31.08" y="217.58" width="31.08" height="31.08" fill="#f0e2f9"/><polygon points="31.08,217.58 62.16,217.58 31.08,248.66000000000003" fill="#494949"/><rect x="62.17" y="186.5" width="62.17" height="62.17" fill="#d0a2ec"/><rect x="62.17" y="186.5" width="62.17" height="62.17" fill="#ce9fec"/><rect x="124.33" y="186.5" width="62.17" height="62.17" fill="#898989"/><rect x="124.33" y="186.5" width="62.17" height="62.17" fill="#e4e4e4"/><rect x="186.5" y="186.5" width="62.166666666666664" height="62.166666666666664" fill="#ffffff"/><rect x="186.5" y="186.5" width="31.08" height="31.08" fill="#808080"/><rect x="186.5" y="186.5" width="31.08" height="31.08" fill="#3a3a3a"/><rect x="217.58" y="186.5" width="31.08" height="31.08" fill="#c9c9c9"/><rect x="217.58" y="186.5" width="31.08" height="31.08" fill="#999999"/><rect x="186.5" y="217.58" width="31.08" height="31.08" fill="#9c3bd8"/><polygon points="217.57999999999998,217.58 217.57999999999998,248.66000000000003 186.5,248.66000000000003" fill="#a6a6a6"/><rect x="217.58" y="217.58" width="31.08" height="31.08" fill="#b975e3"/><rect x="217.58" y="217.58" width="31.08" height="31.08" fill="#952fd5"/><rect x="248.66666666666666" y="186.5" width="62.166666666666664" height="62.166666666666664" fill="#ffffff"/><rect x="248.67" y="186.5" width="31.08" height="31.08" fill="#c994e9"/><rect x="248.67" y="186.5" width="31.08" height="31.08" fill="#f9f9f9"/><rect x="279.75" y="186.5" width="31.08" height="31.08" fill="#a2a2a2"/><polygon points="279.75,186.5 310.83,217.57999999999998 279.75,217.57999999999998" fill="#9e3fd8"/><rect x="248.67" y="217.58" width="31.08" height="31.08" fill="#9023d3"/><polygon points="248.67,217.58 279.75,217.58 279.75,248.66000000000003" fill="#4a4a4a"/><rect x="279.75" y="217.58" width="31.08" height="31.08" fill="#010101"/><polygon points="279.75,217.58 310.83,217.58 310.83,248.66000000000003" fill="#7b7b7b"/><rect x="310.8333333333333" y="186.5" width="62.166666666666664" height="62.166666666666664" fill="#ffffff"/><rect x="310.83" y="186.5" width="31.08" height="31.08" fill="#8c1bd1"/><rect x="310.83" y="186.5" width="31.08" height="31.08" fill="#ba76e4"/><rect x="341.92" y="186.5" width="31.08" height="31.08" fill="#ab5ade"/><polygon points="341.92,186.5 373,186.5 341.92,217.57999999999998" fill="#8e8e8e"/><rect x="310.83" y="217.58" width="31.08" height="31.08" fill="#fefefe"/><rect x="310.83" y="217.58" width="31.08" height="31.08" fill="#a9a9a9"/><rect x="341.92" y="217.58" width="31.08" height="31.08" fill="#2b2b2b"/><rect x="341.92" y="217.58" width="31.08" height="31.08" fill="#8e21d2"/><rect x="373" y="186.5" width="62.166666666666664" height="62.166666666666664" fill="#ffffff"/><rect x="373" y="186.5" width="31.08" height="31.08" fill="#d7b0ef"/><rect x="373" y="186.5" width="31.08" height="31.08" fill="#d1a4ed"/><rect x="404.08" y="186.5" width="31.08" height="31.08" fill="#272727"/><polygon points="404.08,186.5 435.15999999999997,186.5 404.08,217.57999999999998" fill="#f4e9fb"/><rect x="373" y="217.58" width="31.08" height="31.08" fill="#d2a7ed"/><polygon points="404.08,217.58 404.08,248.66000000000003 373,248.66000000000003" fill="#942cd5"/><rect x="404.08" y="217.58" width="31.08" height="31.08" fill="#faf5fd"/><polygon points="404.08,217.58 435.15999999999997,248.66000000000003 404.08,248.66000000000003" fill="#ead5f7"/><rect x="435.17" y="186.5" width="62.17" height="62.17" fill="#777777"/><rect x="435.17" y="186.5" width="62.17" height="62.17" fill="#535353"/><rect x="497.33" y="186.5" width="62.17" height="62.17" fill="#a853dc"/><rect x="497.33" y="186.5" width="62.17" height="62.17" fill="#bcbcbc"/><rect x="559.5" y="186.5" width="62.17" height="62.17" fill="#ca96ea"/><rect x="559.5" y="186.5" width="62.17" height="62.17" fill="#cb99eb"/><rect x="621.67" y="186.5" width="62.17" height="62.17" fill="#e2c5f3"/><rect x="621.67" y="186.5" width="62.17" height="62.17" fill="#fbf7fd"/><rect x="683.8333333333333" y="186.5" width="62.166666666666664" height="62.166666666666664" fill="#ffffff"/><rect x="683.83" y="186.5" width="31.08" height="31.08" fill="#f8f8f8"/><polygon points="683.83,186.5 714.9100000000001,186.5 683.83,217.57999999999998" fill="#faf5fd"/><rect x="714.92" y="186.5" width="31.08" height="31.08" fill="#474747"/><polygon points="714.92,186.5 746,217.57999999999998 714.92,217.57999999999998" fill="#020202"/><rect x="683.83" y="217.58" width="31.08" height="31.08" fill="#393939"/><rect x="683.83" y="217.58" width="31.08" height="31.08" fill="#d7b0ef"/><rect x="714.92" y="217.58" width="31.08" height="31.08" fill="#fffeff"/><polygon points="746,217.58 746,248.66000000000003 714.92,248.66000000000003" fill="#f4f4f4"/><rect x="0" y="248.67" width="62.17" height="62.17" fill="#eedef8"/><polygon points="0,248.67 62.17,248.67 0,310.84" fill="#242424"/><rect x="62.17" y="248.67" width="62.17" height="62.17" fill="#949494"/><rect x="62.17" y="248.67" width="62.17" height="62.17" fill="#545454"/><rect x="124.33" y="248.67" width="62.17" height="62.17" fill="#565656"/><rect x="124.33" y="248.67" width="62.17" height="62.17" fill="#a043d9"/><rect x="186.5" y="248.66666666666666" width="62.166666666666664" height="62.166666666666664" fill="#ffffff"/><rect x="186.5" y="248.67" width="31.08" height="31.08" fill="#9935d6"/><polygon points="186.5,248.67 217.57999999999998,248.67 217.57999999999998,279.75" fill="#e3e3e3"/><rect x="217.58" y="248.67" width="31.08" height="31.08" fill="#9d3ed8"/><polygon points="217.58,248.67 248.66000000000003,279.75 217.58,279.75" fill="#e0c1f3"/><rect x="186.5" y="279.75" width="31.08" height="31.08" fill="#000000"/><polygon points="217.57999999999998,279.75 217.57999999999998,310.83 186.5,310.83" fill="#d5acee"/><rect x="217.58" y="279.75" width="31.08" height="31.08" fill="#0e0e0e"/><rect x="217.58" y="279.75" width="31.08" height="31.08" fill="#b56ce2"/><rect x="248.67" y="248.67" width="62.17" height="62.17" fill="#a145da"/><polygon points="248.67,248.67 310.84,248.67 248.67,310.84" fill="#be80e5"/><rect x="310.83" y="248.67" width="62.17" height="62.17" fill="#f3e8fa"/><polygon points="373,248.67 373,310.84 310.83,310.84" fill="#debef2"/><rect x="373" y="248.66666666666666" width="62.166666666666664" height="62.166666666666664" fill="#ffffff"/><rect x="373" y="248.67" width="31.08" height="31.08" fill="#cb98ea"/><polygon points="373,248.67 404.08,279.75 373,279.75" fill="#d1d1d1"/><rect x="404.08" y="248.67" width="31.08" height="31.08" fill="#dddddd"/><polygon points="404.08,248.67 435.15999999999997,279.75 404.08,279.75" fill="#000000"/><rect x="373" y="279.75" width="31.08" height="31.08" fill="#dcdcdc"/><polygon points="373,279.75 404.08,279.75 373,310.83" fill="#bfbfbf"/><rect x="404.08" y="279.75" width="31.08" height="31.08" fill="#333333"/><polygon points="435.15999999999997,279.75 435.15999999999997,310.83 404.08,310.83" fill="#e5cbf5"/><rect x="435.17" y="248.67" width="62.17" height="62.17" fill="#d5adee"/><polygon points="497.34000000000003,248.67 497.34000000000003,310.84 435.17,310.84" fill="#be7fe5"/><rect x="497.33" y="248.67" width="62.17" height="62.17" fill="#f8f2fc"/><polygon points="497.33,248.67 559.5,310.84 497.33,310.84" fill="#cfa0ec"/><rect x="559.5" y="248.67" width="62.17" height="62.17" fill="#e5e5e5"/><polygon points="621.67,248.67 621.67,310.84 559.5,310.84" fill="#b3b3b3"/><rect x="621.67" y="248.67" width="62.17" height="62.17" fill="#c7c7c7"/><rect x="621.67" y="248.67" width="62.17" height="62.17" fill="#2b2b2b"/><rect x="683.83" y="248.67" width="62.17" height="62.17" fill="#5a5a5a"/><rect x="683.83" y="248.67" width="62.17" height="62.17" fill="#ca96ea"/><rect x="0" y="310.83" width="62.17" height="62.17" fill="#949494"/><rect x="0" y="310.83" width="62.17" height="62.17" fill="#d2a5ed"/><rect x="62.17" y="310.83" width="62.17" height="62.17" fill="#aeaeae"/><polygon points="124.34,310.83 124.34,373 62.17,373" fill="#d0a3ec"/><rect x="124.33" y="310.83" width="62.17" height="62.17" fill="#9d3dd8"/><polygon points="124.33,310.83 186.5,373 124.33,373" fill="#9228d4"/><rect x="186.5" y="310.83" width="62.17" height="62.17" fill="#bababa"/><rect x="186.5" y="310.83" width="62.17" height="62.17" fill="#6d6d6d"/><rect x="248.67" y="310.83" width="62.17" height="62.17" fill="#b267e0"/><rect x="248.67" y="310.83" width="62.17" height="62.17" fill="#bc7ce5"/><rect x="310.83" y="310.83" width="62.17" height="62.17" fill="#cacaca"/><polygon points="373,310.83 373,373 310.83,373" fill="#ecdaf7"/><rect x="373" y="310.8333333333333" width="62.166666666666664" height="62.166666666666664" fill="#ffffff"/><rect x="373" y="310.83" width="31.08" height="31.08" fill="#616161"/><rect x="373" y="310.83" width="31.08" height="31.08" fill="#9630d6"/><rect x="404.08" y="310.83" width="31.08" height="31.08" fill="#aaaaaa"/><polygon points="404.08,310.83 435.15999999999997,310.83 435.15999999999997,341.90999999999997" fill="#9125d3"/><rect x="373" y="341.92" width="31.08" height="31.08" fill="#868686"/><rect x="373" y="341.92" width="31.08" height="31.08" fill="#932ad4"/><rect x="404.08" y="341.92" width="31.08" height="31.08" fill="#727272"/><rect x="404.08" y="341.92" width="31.08" height="31.08" fill="#c185e6"/><rect x="435.17" y="310.83" width="62.17" height="62.17" fill="#272727"/><rect x="435.17" y="310.83" width="62.17" height="62.17" fill="#2d2d2d"/><rect x="497.3333333333333" y="310.8333333333333" width="62.166666666666664" height="62.166666666666664" fill="#ffffff"/><rect x="497.33" y="310.83" width="31.08" height="31.08" fill="#c994ea"/><rect x="497.33" y="310.83" width="31.08" height="31.08" fill="#969696"/><rect x="528.42" y="310.83" width="31.08" height="31.08" fill="#f7effc"/><polygon points="528.42,310.83 559.5,341.90999999999997 528.42,341.90999999999997" fill="#737373"/><rect x="497.33" y="341.92" width="31.08" height="31.08" fill="#dbb7f1"/><rect x="497.33" y="341.92" width="31.08" height="31.08" fill="#dfdfdf"/><rect x="528.42" y="341.92" width="31.08" height="31.08" fill="#1d1d1d"/><polygon points="528.42,341.92 559.5,341.92 528.42,373" fill="#f4e9fb"/><rect x="559.5" y="310.83" width="62.17" height="62.17" fill="#fbf8fe"/><polygon points="559.5,310.83 621.67,310.83 621.67,373" fill="#9e9e9e"/><rect x="621.6666666666666" y="310.8333333333333" width="62.166666666666664" height="62.166666666666664" fill="#ffffff"/><rect x="621.67" y="310.83" width="31.08" height="31.08" fill="#9e3fd8"/><polygon points="621.67,310.83 652.75,310.83 621.67,341.90999999999997" fill="#a247da"/><rect x="652.75" y="310.83" width="31.08" height="31.08" fill="#e7cff5"/><polygon points="683.83,310.83 683.83,341.90999999999997 652.75,341.90999999999997" fill="#030303"/><rect x="621.67" y="341.92" width="31.08" height="31.08" fill="#222222"/><rect x="621.67" y="341.92" width="31.08" height="31.08" fill="#fefdff"/><rect x="652.75" y="341.92" width="31.08" height="31.08" fill="#d5adee"/><polygon points="683.83,341.92 683.83,373 652.75,373" fill="#f8f8f8"/><rect x="683.8333333333333" y="310.8333333333333" width="62.166666666666664" height="62.166666666666664" fill="#ffffff"/><rect x="683.83" y="310.83" width="31.08" height="31.08" fill="#060606"/><rect x="683.83" y="310.83" width="31.08" height="31.08" fill="#525252"/><rect x="714.92" y="310.83" width="31.08" height="31.08" fill="#6f6f6f"/><polygon points="714.92,310.83 746,310.83 746,341.90999999999997" fill="#debef2"/><rect x="683.83" y="341.92" width="31.08" height="31.08" fill="#cfcfcf"/><rect x="683.83" y="341.92" width="31.08" height="31.08" fill="#c7c7c7"/><rect x="714.92" y="341.92" width="31.08" height="31.08" fill="#7e7e7e"/><rect x="714.92" y="341.92" width="31.08" height="31.08" fill="#999999"/></g></svg>